PathFileType	4	(X/Y/Z)	c:/Users/goper/Files/vsCode/490R/osim_files/C15/C15_Static02.trc
DataRate	CameraRate	NumFrames	NumMarkers	Units                	OrigDataRate	OrigDataStartFrame	OrigNumFrames
250.00	250.00	4	36	mm	250.0	511	1020
                Frame#	Time	LPSIS			LASIS			LTH1			LTH2			LTH3			LTH4			LLFE			LMFE			LSH1			LSH2			LSH3			LSH4			LLMAL			LMMAL			LCAL			LMTP5			LTOE			LMTP1			RPSIS			RASIS			RTH1			RTH2			RTH3			RTH4			RLFE			RMFE			RSH1			RSH2			RSH3			RSH4			RLMAL			RMMAL			RCAL			RMTP1			RTOE			RMTP5		
		X1	Y1	Z1	X2	Y2	Z2	X3	Y3	Z3	X4	Y4	Z4	X5	Y5	Z5	X6	Y6	Z6	X7	Y7	Z7	X8	Y8	Z8	X9	Y9	Z9	X10	Y10	Z10	X11	Y11	Z11	X12	Y12	Z12	X13	Y13	Z13	X14	Y14	Z14	X15	Y15	Z15	X16	Y16	Z16	X17	Y17	Z17	X18	Y18	Z18	X19	Y19	Z19	X20	Y20	Z20	X21	Y21	Z21	X22	Y22	Z22	X23	Y23	Z23	X24	Y24	Z24	X25	Y25	Z25	X26	Y26	Z26	X27	Y27	Z27	X28	Y28	Z28	X29	Y29	Z29	X30	Y30	Z30	X31	Y31	Z31	X32	Y32	Z32	X33	Y33	Z33	X34	Y34	Z34	X35	Y35	Z35	X36	Y36	Z36

511	2.04000	-432.11392	1029.29492	402.46597	-269.57059	1009.25409	329.92868	-357.04614	634.55212	251.23621	-361.10553	587.17377	264.40942	-304.99298	638.51697	252.43018	-306.55930	593.20026	258.86124	-341.34976	500.57416	276.67441	-334.26663	476.75653	395.52100	-410.68634	395.76855	259.58963	-413.75592	353.23718	250.50592	-348.95663	388.50424	256.07962	-359.55267	345.55212	247.27470	-403.08148	84.79684	288.44958	-382.95685	103.97024	379.15936	-463.85574	57.85815	331.60632	-280.95752	35.98899	263.26495	-224.66135	59.09066	326.34622	-260.45947	38.98051	381.54068	-424.60306	1030.13965	522.26862	-267.28186	1005.88361	580.78680	-340.18448	642.85675	652.50720	-340.16034	596.01062	647.25995	-280.66943	637.78796	639.56421	-289.09259	591.69055	638.96570	-336.13632	498.15515	624.86188	-352.74603	474.14725	508.86722	-425.16443	399.65622	649.96368	-426.74915	356.49344	657.09314	-363.40012	389.10013	651.91840	-375.18567	348.83923	659.67883	-416.77972	84.38919	616.83295	-387.50302	102.99718	529.19092	-477.15808	58.37763	572.46881	-273.48376	37.80574	534.97327	-239.29921	55.82034	588.47137	-299.60843	30.95071	654.00195
512	2.04400	-432.09937	1029.27844	402.44507	-269.58011	1009.24353	329.93610	-357.02655	634.52423	251.21321	-361.07465	587.15948	264.38840	-304.99191	638.49744	252.43201	-306.53204	593.16644	258.86151	-341.33572	500.56149	276.66006	-334.29602	476.75061	395.52869	-410.68546	395.73151	259.59201	-413.77682	353.21844	250.51036	-348.96561	388.46478	256.07770	-359.53018	345.53937	247.28561	-403.07782	84.77364	288.45480	-382.95145	103.94845	379.16397	-463.83533	57.82640	331.57935	-280.94263	35.95766	263.27203	-224.65771	59.06986	326.36050	-260.45395	38.95408	381.56152	-424.56741	1030.13269	522.23157	-267.24246	1005.87878	580.80731	-340.19193	642.85089	652.53033	-340.15854	596.02692	647.27429	-280.63507	637.76965	639.56464	-289.09488	591.67188	638.97046	-336.14859	498.14062	624.86591	-352.75909	474.15247	508.86273	-425.17023	399.64450	649.96069	-426.71103	356.46820	657.09479	-363.39465	389.09448	651.90082	-375.18542	348.83786	659.68958	-416.77368	84.38921	616.85785	-387.49707	102.97353	529.20941	-477.12146	58.34752	572.46088	-273.48608	37.78378	534.99524	-239.28073	55.81314	588.49054	-299.59171	30.92876	654.00726
513	2.04800	-432.12979	1029.29480	402.42648	-269.54675	1009.24731	329.90320	-357.02106	634.53363	251.20062	-361.11548	587.15625	264.37009	-304.98563	638.49988	252.40680	-306.57230	593.14630	258.84180	-341.31348	500.55945	276.65259	-334.31778	476.77533	395.49838	-410.66467	395.74463	259.56558	-413.75562	353.20374	250.48010	-348.94601	388.45554	256.06247	-359.54285	345.54086	247.26437	-403.07471	84.76720	288.44208	-382.94812	103.93172	379.15936	-463.83667	57.86502	331.57468	-280.94287	35.94390	263.27719	-224.67369	59.04508	326.35229	-260.62744	38.82347	381.51285	-424.62119	1030.16492	522.21344	-267.28000	1005.84259	580.81903	-340.17285	642.86200	652.51947	-340.21106	596.03430	647.24176	-280.66815	637.74548	639.55957	-289.14096	591.64465	638.97333	-336.15518	498.11151	624.85999	-352.74945	474.15384	508.85907	-425.17368	399.63315	649.96759	-426.71576	356.44788	657.08508	-363.40060	389.09619	651.90997	-375.20981	348.83621	659.67584	-416.75958	84.41972	616.84528	-387.50192	102.98657	529.18750	-477.10971	58.31254	572.49805	-273.49835	37.75294	534.98016	-239.30325	55.78269	588.50067	-299.61234	30.93114	654.00702
514	2.05200	-432.11758	1029.31470	402.40308	-269.56927	1009.22748	329.88913	-357.00186	634.51154	251.18454	-361.02795	587.13495	264.33224	-304.96542	638.48718	252.37100	-306.56290	593.12878	258.81589	-341.28976	500.56372	276.64670	-334.31851	476.80273	395.49448	-410.65945	395.73196	259.56979	-413.75266	353.19620	250.45915	-348.93997	388.41656	256.03653	-359.53180	345.53400	247.24512	-403.03650	84.77068	288.43399	-382.92859	103.91859	379.16486	-463.87234	57.90767	331.56097	-281.01575	35.79610	263.40408	-224.67212	59.02523	326.36917	-260.62021	38.79884	381.52777	-424.60822	1030.17383	522.20081	-267.30881	1005.79755	580.81354	-340.23026	642.85913	652.50958	-340.17346	596.06879	647.23566	-280.69308	637.71368	639.55566	-289.14786	591.60388	638.97491	-336.20285	498.08939	624.86920	-352.74600	474.16077	508.85236	-425.15680	399.65665	649.97437	-426.72009	356.42969	657.09558	-363.43750	389.04816	651.90948	-375.21655	348.81317	659.67975	-416.76547	84.43195	616.86523	-387.48080	102.99001	529.18524	-477.06656	58.28928	572.51202	-273.52731	37.70402	535.00592	-239.31812	55.74022	588.50159	-299.60196	30.92361	654.02087
